<svg xmlns="http://www.w3.org/2000/svg" viewBox="0 0 944.15 710.65"><defs><style>.cls-1{fill:#fff;}</style></defs><g id="Layer_2" data-name="Layer 2"><g id="Layer_1-2" data-name="Layer 1"><ellipse class="cls-1" cx="267.67" cy="59.37" rx="66.01" ry="53.39" transform="translate(28.95 194.22) rotate(-41.97)"/><polygon class="cls-1" points="726.91 332.6 766.91 332.6 873.45 332.6 917.53 332.6 925.02 297.39 880.94 297.39 944.15 0 833.36 20 774.4 297.39 734.4 297.39 765.62 150.52 654.83 170.52 627.86 297.39 583.59 297.39 576.11 332.6 620.38 332.6 726.91 332.6"/><path class="cls-1" d="M894,468.18c-27.28,0-47.61-8.4-40.16-43.44L866,367.82H759.43l-12.31,57.92a95.35,95.35,0,0,0,.14,42.44c-3.13,0-6.17-.13-9.08-.38-22.36-2-37.42-12.15-30.85-43.06l12.1-56.92H612.89c-17.36,35.49-68.52,81.86-114.87,95.09-28.85,8.23-71.81,12.27-82.37-28.2a211,211,0,0,1-4-45.18c4.63-.77,9.39-1.69,14.25-2.81,47.6-10.83,104.15-38.29,135-88.11A149.71,149.71,0,0,0,576.24,265c.67-2.11,1.32-4.24,1.9-6.42.24-.9.47-1.8.69-2.69,6.79-28.23,5.28-56.89-9.49-76-7.2-9.32-15.63-15.25-26.36-20.39-16.86-8.07-43.82-9-66.92-9h-.3c-69,.25-142.5,83.45-164.31,186l-.15.74c-.06.25-.1.49-.15.74a278.93,278.93,0,0,0-5.35,39.28,283.25,283.25,0,0,0,.34,42.12c-14.29,29.54-43.44,51.62-76.26,68.34l71.69-337.27H195L114.71,528.4l-1,.25-3.59,1-.41.11q-3,.78-5.82,1.61l-1.72.5c-1.23.36-2.44.73-3.63,1.1l-2.18.69-3.11,1-2.2.75-.51.18-3,1.09-.43.16-2.2.83-1.61.62c-1.23.48-2.44,1-3.64,1.46l-1.78.74-1.75.75-1.36.59c-2.48,1.1-4.86,2.22-7.18,3.36l-1.19.59c-.47.23-.93.47-1.38.71s-.81.41-1.2.62l-.13.06-.86.46-1,.54-.83.45-1.26.7c-.84.46-1.66.93-2.47,1.41l-1.22.71-2.37,1.43c-.87.54-1.74,1.09-2.59,1.64-.3.18-.58.37-.87.56l-.86.56-.22.15c-.67.45-1.34.9-2,1.35l-.19.13-2,1.38-.3.22-.12.09-1.76,1.29-1,.75c-.66.5-1.31,1-1.94,1.5h0L38,564l-.92.76-1.79,1.52,0,0c-.57.5-1.13,1-1.68,1.49l-.08.07-1.59,1.46q-1.08,1-2.1,2c-.69.67-1.35,1.34-2,2-.41.42-.8.84-1.21,1.27l-1,1.08-1.33,1.47-.74.85c-.17.21-.36.41-.53.61s-.35.4-.52.61l-.05.07-.16.18c-.26.3-.5.59-.74.89l-.07.08c-.4.48-.79,1-1.18,1.46l-.56.72-.15.19-.16.21-.62.82c-.18.23-.35.45-.5.67l-.5.67c-.33.45-.64.89-1,1.34s-.71,1-1.05,1.52-.5.72-.73,1.08c-.43.65-.85,1.29-1.24,1.92s-.62,1-.92,1.48L12,594l-.83,1.45-.79,1.45-.73,1.38c-.49,1-1,1.9-1.4,2.82s-.82,1.78-1.2,2.65v0c-.39.89-.76,1.75-1.1,2.61l-.49,1.26c-.13.34-.25.68-.37,1a3,3,0,0,0-.14.39c-.15.4-.29.8-.43,1.2s-.21.62-.32.92-.17.53-.25.8h0l-.09.28a3.16,3.16,0,0,0-.12.37c0,.15-.09.3-.13.45a3.38,3.38,0,0,0-.11.34c-.07.23-.13.45-.19.67s-.12.38-.17.56-.07.24-.1.36-.13.46-.18.69-.09.32-.13.47a2.12,2.12,0,0,0-.09.31c-.11.41-.2.81-.3,1.22-.15.64-.3,1.26-.42,1.85h0c-10.7,50.33,25.4,91.13,80.63,91.13s108.67-40.8,119.37-91.13l19.58-92.14c7.14-3.18,14.27-6.57,21.3-10.21q45.66-23.62,72.3-54.06C328.87,502.5,358,528.4,407.65,528.4c110,0,172.46-63,192.34-99.91l.55-2.56c-11.93,56.61,24.24,102.47,80.88,102.47h3.88v-.08a117.66,117.66,0,0,0,42.08-9.75,138.1,138.1,0,0,0,33.84-20.94c14.59,19,38,30.77,66.73,30.77,1.31,0,2.6,0,3.89-.08,40.36-1.54,67.84-26.88,84.12-62.54A89.63,89.63,0,0,1,894,468.18ZM97.89,602.81c-5.58,19.72-21.54,44.3-37.65,44.3-15.59,0-25.91-11.58-23.64-26.1.08-.49.16-1,.27-1.48h0c0-.14.06-.28.1-.42l0-.13v-.06a.65.65,0,0,1,0-.13s0-.07,0-.11a1,1,0,0,1,0-.17.83.83,0,0,1,0-.15c0-.1.05-.21.08-.31s.11-.47.17-.7.12-.47.19-.71a.56.56,0,0,0,0-.12c.06-.19.12-.37.17-.56q.21-.68.45-1.38l.25-.72c.19-.48.37-1,.56-1.45l0,0c.19-.5.41-1,.64-1.53s.47-1,.73-1.56.49-1,.76-1.48l.06-.12q.21-.4.45-.81c.14-.27.3-.55.46-.82l.5-.83c.16-.27.33-.55.51-.83l.67-1c.15-.22.3-.43.44-.65s.39-.57.6-.85.41-.57.63-.86q.72-1,1.53-2c.16-.21.33-.41.51-.62A68.25,68.25,0,0,1,53,592.6l.94-.88,1-.87c.66-.58,1.33-1.17,2-1.75l1.07-.87c.36-.3.73-.59,1.12-.88.8-.62,1.63-1.25,2.49-1.86.34-.25.69-.5,1.05-.74s.88-.62,1.33-.92.8-.55,1.22-.81.88-.58,1.33-.86l1.3-.82c.62-.38,1.26-.76,1.9-1.13.35-.21.69-.41,1-.6s1-.57,1.5-.84c1-.59,2.15-1.18,3.27-1.75l1.47-.74,1.66-.82,1.72-.81,1.76-.81c.58-.27,1.19-.53,1.8-.79a179,179,0,0,1,18.28-6.73c.54-.18,1.1-.35,1.66-.51,1-.31,2-.61,3-.9C107,564.91,103.3,583.69,97.89,602.81ZM417.7,336.57c9-42.54,27-81.73,49.79-113.07,4.17-5.73,11.2-14.22,20.91-18.62,7.93-3.6,27.26-5.19,31.59,10,5.94,20.84-5.76,54.54-18.9,76.11-19.17,38.82-45.79,61.79-86.59,63.34Q415.81,345.55,417.7,336.57Z"/></g></g></svg>